<svg width="24" height="24" viewBox="0 0 24 24" fill="none" xmlns="http://www.w3.org/2000/svg">
<path d="M14.7062 6.30071C14.523 6.48764 14.4203 6.73896 14.4203 7.00071C14.4203 7.26247 14.523 7.51378 14.7062 7.70071L16.3062 9.30071C16.4931 9.48394 16.7444 9.58657 17.0062 9.58657C17.268 9.58657 17.5193 9.48394 17.7062 9.30071L21.4762 5.53071C21.979 6.6419 22.1313 7.87995 21.9127 9.07986C21.694 10.2798 21.1149 11.3846 20.2525 12.247C19.39 13.1094 18.2853 13.6885 17.0853 13.9072C15.8854 14.1258 14.6474 13.9735 13.5362 13.4707L6.6262 20.3807C6.22838 20.7785 5.68881 21.002 5.1262 21.002C4.56359 21.002 4.02403 20.7785 3.6262 20.3807C3.22838 19.9829 3.00488 19.4433 3.00488 18.8807C3.00488 18.3181 3.22838 17.7785 3.6262 17.3807L10.5362 10.4707C10.0334 9.35952 9.88112 8.12148 10.0997 6.92157C10.3184 5.72166 10.8975 4.61687 11.7599 3.75443C12.6224 2.892 13.7271 2.31288 14.9271 2.09425C16.127 1.87563 17.365 2.02788 18.4762 2.53071L14.7162 6.29071L14.7062 6.30071Z" stroke="black" stroke-width="0.75" stroke-linecap="round" stroke-linejoin="round"/>
</svg>
