<svg width="245" height="248" viewBox="0 0 245 248" fill="none" xmlns="http://www.w3.org/2000/svg">
<g filter="url(#filter0_d_232_35)">
<path d="M19.728 26H22.644L13.212 0.799998H10.332L0.936 26H3.816L6.444 18.944H17.1L19.728 26ZM7.38 16.424L11.772 4.58L16.164 16.424H7.38ZM33.048 26.504C37.008 26.504 39.636 24.056 40.752 20.996L38.268 20.132C37.476 22.508 35.568 24.02 33.048 24.02C29.412 24.02 26.892 21.14 26.892 17.18C26.892 13.22 29.412 10.34 33.048 10.34C35.604 10.34 37.44 11.78 38.232 14.084L40.716 13.22C39.708 10.232 37.152 7.856 33.048 7.856C27.432 7.856 24.156 12.428 24.156 17.18C24.156 21.896 27.288 26.504 33.048 26.504ZM53.0168 26.504C56.9768 26.504 59.6048 24.056 60.7208 20.996L58.2368 20.132C57.4448 22.508 55.5368 24.02 53.0168 24.02C49.3808 24.02 46.8608 21.14 46.8608 17.18C46.8608 13.22 49.3808 10.34 53.0168 10.34C55.5728 10.34 57.4088 11.78 58.2008 14.084L60.6848 13.22C59.6768 10.232 57.1208 7.856 53.0168 7.856C47.4008 7.856 44.1248 12.428 44.1248 17.18C44.1248 21.896 47.2568 26.504 53.0168 26.504ZM73.0935 26.504C78.8535 26.504 82.1655 21.788 82.1655 17.18C82.1655 12.536 78.8535 7.856 73.0935 7.856C67.4415 7.856 64.0935 12.536 64.0935 17.18C64.0935 21.788 67.2975 26.504 73.0935 26.504ZM73.0935 24.02C69.3855 24.02 66.8295 21.032 66.8295 17.18C66.8295 13.292 69.3855 10.34 73.0935 10.34C76.8375 10.34 79.4295 13.292 79.4295 17.18C79.4295 21.032 76.8375 24.02 73.0935 24.02ZM86.3325 26H89.0685V15.992C89.0685 12.32 91.3725 10.412 93.8205 10.412C95.9085 10.412 97.7085 11.456 97.7085 15.2V26H100.445V15.992C100.445 12.356 102.677 10.412 105.161 10.412C107.429 10.412 109.085 11.456 109.085 15.2V26H111.821V14.156C111.821 9.764 109.157 7.856 106.025 7.856C103.253 7.856 101.237 9.044 99.8685 10.916C99.0405 9.08 97.2765 7.856 94.7565 7.856C92.2725 7.856 90.3645 8.864 88.9965 10.772L88.6365 8.36H86.3325V26ZM124.984 26.504C130.744 26.504 134.056 21.788 134.056 17.18C134.056 12.536 130.744 7.856 124.984 7.856C119.332 7.856 115.984 12.536 115.984 17.18C115.984 21.788 119.188 26.504 124.984 26.504ZM124.984 24.02C121.276 24.02 118.72 21.032 118.72 17.18C118.72 13.292 121.276 10.34 124.984 10.34C128.728 10.34 131.32 13.292 131.32 17.18C131.32 21.032 128.728 24.02 124.984 24.02ZM145.747 26.468C148.843 26.468 150.859 25.028 152.047 23.408L152.407 26H154.675V0.799998H151.939V10.916C150.679 9.188 148.627 7.856 145.747 7.856C140.095 7.856 137.359 12.572 137.359 17.144C137.359 21.68 140.455 26.468 145.747 26.468ZM146.035 24.02C142.507 24.02 140.095 21.104 140.095 17.144C140.095 13.148 142.507 10.304 146.035 10.304C149.599 10.304 151.975 13.184 151.975 17.144C151.975 21.104 149.599 24.02 146.035 24.02ZM165.068 26.504C167.876 26.504 169.568 25.532 170.54 24.164L170.864 26H173.168V14.192C173.168 10.052 170.432 7.856 166.112 7.856C162.296 7.856 159.92 9.8 159.236 13.148L161.72 13.796C162.008 11.708 163.16 10.16 166.112 10.16C169.028 10.16 170.432 11.6 170.432 14.228V14.804L165.716 15.488C160.892 16.172 158.948 18.08 158.948 21.176C158.948 23.984 161 26.504 165.068 26.504ZM165.644 24.128C163.16 24.128 161.612 22.94 161.612 21.032C161.612 18.872 163.376 18.08 166.04 17.684L170.432 17.036V19.628C170.432 22.796 168.092 24.128 165.644 24.128ZM183.676 26.504C185.692 26.504 186.916 25.712 187.348 25.172L185.944 23.264C185.62 23.552 184.972 23.948 184.108 23.948C182.812 23.948 182.056 23.336 182.056 21.68V10.844H187.132V8.36H182.056V3.752H179.32V8.36H176.044V10.844H179.32V21.932C179.32 24.812 181.048 26.504 183.676 26.504ZM192.437 5.516C193.553 5.516 194.453 4.616 194.453 3.464C194.453 2.312 193.553 1.412 192.437 1.412C191.249 1.412 190.349 2.312 190.349 3.464C190.349 4.616 191.249 5.516 192.437 5.516ZM191.069 26H193.805V8.36H191.069V26ZM207.179 26.504C212.939 26.504 216.251 21.788 216.251 17.18C216.251 12.536 212.939 7.856 207.179 7.856C201.527 7.856 198.179 12.536 198.179 17.18C198.179 21.788 201.383 26.504 207.179 26.504ZM207.179 24.02C203.471 24.02 200.915 21.032 200.915 17.18C200.915 13.292 203.471 10.34 207.179 10.34C210.923 10.34 213.515 13.292 213.515 17.18C213.515 21.032 210.923 24.02 207.179 24.02ZM220.418 26H223.154V15.956C223.154 12.464 225.602 10.412 228.194 10.412C230.498 10.412 232.37 11.348 232.37 15.092V26H235.106V14.444C235.106 9.836 232.514 7.856 229.022 7.856C226.502 7.856 224.522 8.828 223.118 10.736L222.722 8.36H220.418V26ZM238.989 29.24L240.249 30.356C242.121 28.7 243.021 26.036 243.021 24.452C243.021 22.832 242.013 22.04 240.897 22.04C239.853 22.04 238.809 22.832 238.809 24.2C238.809 25.172 239.529 25.856 240.393 26.144C240.393 27.188 239.637 28.448 238.989 29.24ZM23.148 52.36L19.008 66.508L14.724 52.36H11.808L7.56 66.58L3.42 52.36H0.648L6.084 70H8.964L13.32 55.816L17.676 70H20.484L25.92 52.36H23.148ZM36.7419 70.504C42.5019 70.504 45.8139 65.788 45.8139 61.18C45.8139 56.536 42.5019 51.856 36.7419 51.856C31.0899 51.856 27.7419 56.536 27.7419 61.18C27.7419 65.788 30.9459 70.504 36.7419 70.504ZM36.7419 68.02C33.0339 68.02 30.4779 65.032 30.4779 61.18C30.4779 57.292 33.0339 54.34 36.7419 54.34C40.4859 54.34 43.0779 57.292 43.0779 61.18C43.0779 65.032 40.4859 68.02 36.7419 68.02ZM49.9809 70H52.7169V60.1C52.7169 56.68 54.7329 54.448 57.1809 54.448C58.3689 54.448 59.2689 54.844 59.6289 55.132L60.7449 52.792C60.2409 52.36 59.0529 51.856 57.5049 51.856C55.2009 51.856 53.5089 53.224 52.6809 54.7L52.2849 52.36H49.9809V70ZM74.8904 70H78.0584L70.4624 59.308L77.1944 52.324H73.8104L66.3224 60.028V44.8H63.5864V70H66.3224V63.592L68.6264 61.216L74.8904 70ZM80.6453 73.24L81.9053 74.356C83.7773 72.7 84.6773 70.036 84.6773 68.452C84.6773 66.832 83.6693 66.04 82.5533 66.04C81.5093 66.04 80.4653 66.832 80.4653 68.2C80.4653 69.172 81.1853 69.856 82.0493 70.144C82.0493 71.188 81.2933 72.448 80.6453 73.24ZM2.52 114H5.256V103.992C5.256 100.464 7.704 98.412 10.296 98.412C12.6 98.412 14.436 99.348 14.436 103.092V114H17.172V102.444C17.172 97.836 14.58 95.856 11.124 95.856C8.64 95.856 6.624 96.828 5.256 98.7V88.8H2.52V114ZM38.3715 105.936V104.748C38.3715 99.348 35.0235 95.892 30.0915 95.856C25.0515 95.856 21.3435 100.104 21.3435 105.18C21.3435 110.292 24.7275 114.504 30.1275 114.504C34.3755 114.504 36.9675 112.092 37.8675 109.5L35.4555 108.744C34.8795 110.544 32.9355 112.164 30.1275 112.164C26.5995 112.164 24.1875 109.428 24.0435 105.936H38.3715ZM35.8155 103.668H24.0795C24.5115 100.68 26.6355 98.196 30.1275 98.196C33.3315 98.196 35.5995 100.608 35.8155 103.668ZM47.927 114.504C50.735 114.504 52.427 113.532 53.399 112.164L53.723 114H56.027V102.192C56.027 98.052 53.291 95.856 48.971 95.856C45.155 95.856 42.779 97.8 42.095 101.148L44.579 101.796C44.867 99.708 46.019 98.16 48.971 98.16C51.887 98.16 53.291 99.6 53.291 102.228V102.804L48.575 103.488C43.751 104.172 41.807 106.08 41.807 109.176C41.807 111.984 43.859 114.504 47.927 114.504ZM48.503 112.128C46.019 112.128 44.471 110.94 44.471 109.032C44.471 106.872 46.235 106.08 48.899 105.684L53.291 105.036V107.628C53.291 110.796 50.951 112.128 48.503 112.128ZM60.7036 114H63.4396V88.8H60.7036V114ZM74.3051 114.504C76.3211 114.504 77.5451 113.712 77.9771 113.172L76.5731 111.264C76.2491 111.552 75.6011 111.948 74.7371 111.948C73.4411 111.948 72.6851 111.336 72.6851 109.68V98.844H77.7611V96.36H72.6851V91.752H69.9491V96.36H66.6731V98.844H69.9491V109.932C69.9491 112.812 71.6771 114.504 74.3051 114.504ZM81.4458 114H84.1818V103.992C84.1818 100.464 86.6298 98.412 89.2218 98.412C91.5258 98.412 93.3618 99.348 93.3618 103.092V114H96.0978V102.444C96.0978 97.836 93.5058 95.856 90.0498 95.856C87.5658 95.856 85.5498 96.828 84.1818 98.7V88.8H81.4458V114ZM109.161 114.504C113.121 114.504 115.749 112.056 116.865 108.996L114.381 108.132C113.589 110.508 111.681 112.02 109.161 112.02C105.525 112.02 103.005 109.14 103.005 105.18C103.005 101.22 105.525 98.34 109.161 98.34C111.717 98.34 113.553 99.78 114.345 102.084L116.829 101.22C115.821 98.232 113.265 95.856 109.161 95.856C103.545 95.856 100.269 100.428 100.269 105.18C100.269 109.896 103.401 114.504 109.161 114.504ZM126.466 114.504C129.274 114.504 130.966 113.532 131.938 112.164L132.262 114H134.566V102.192C134.566 98.052 131.83 95.856 127.51 95.856C123.694 95.856 121.318 97.8 120.634 101.148L123.118 101.796C123.406 99.708 124.558 98.16 127.51 98.16C130.426 98.16 131.83 99.6 131.83 102.228V102.804L127.114 103.488C122.29 104.172 120.346 106.08 120.346 109.176C120.346 111.984 122.398 114.504 126.466 114.504ZM127.042 112.128C124.558 112.128 123.01 110.94 123.01 109.032C123.01 106.872 124.774 106.08 127.438 105.684L131.83 105.036V107.628C131.83 110.796 129.49 112.128 127.042 112.128ZM139.243 114H141.979V104.1C141.979 100.68 143.995 98.448 146.443 98.448C147.631 98.448 148.531 98.844 148.891 99.132L150.007 96.792C149.503 96.36 148.315 95.856 146.767 95.856C144.463 95.856 142.771 97.224 141.943 98.7L141.547 96.36H139.243V114ZM168.204 105.936V104.748C168.204 99.348 164.856 95.892 159.924 95.856C154.884 95.856 151.176 100.104 151.176 105.18C151.176 110.292 154.56 114.504 159.96 114.504C164.208 114.504 166.8 112.092 167.7 109.5L165.288 108.744C164.712 110.544 162.768 112.164 159.96 112.164C156.432 112.164 154.02 109.428 153.876 105.936H168.204ZM165.648 103.668H153.912C154.344 100.68 156.468 98.196 159.96 98.196C163.164 98.196 165.432 100.608 165.648 103.668ZM170.294 117.24L171.554 118.356C173.426 116.7 174.326 114.036 174.326 112.452C174.326 110.832 173.318 110.04 172.202 110.04C171.158 110.04 170.114 110.832 170.114 112.2C170.114 113.172 170.834 113.856 171.698 114.144C171.698 115.188 170.942 116.448 170.294 117.24ZM11.448 139.892C8.352 139.892 6.336 141.332 5.184 142.988L4.824 140.36H2.52V165.56H5.256V155.444C6.552 157.208 8.568 158.504 11.448 158.504C17.1 158.504 19.836 153.788 19.836 149.216C19.836 144.68 16.776 139.892 11.448 139.892ZM11.16 142.34C14.688 142.34 17.1 145.256 17.1 149.216C17.1 153.212 14.688 156.056 11.16 156.056C7.596 156.056 5.22 153.212 5.22 149.216C5.22 145.256 7.596 142.34 11.16 142.34ZM29.3645 158.504C32.1725 158.504 33.8645 157.532 34.8365 156.164L35.1605 158H37.4645V146.192C37.4645 142.052 34.7285 139.856 30.4085 139.856C26.5925 139.856 24.2165 141.8 23.5325 145.148L26.0165 145.796C26.3045 143.708 27.4565 142.16 30.4085 142.16C33.3245 142.16 34.7285 143.6 34.7285 146.228V146.804L30.0125 147.488C25.1885 148.172 23.2445 150.08 23.2445 153.176C23.2445 155.984 25.2965 158.504 29.3645 158.504ZM29.9405 156.128C27.4565 156.128 25.9085 154.94 25.9085 153.032C25.9085 150.872 27.6725 150.08 30.3365 149.684L34.7285 149.036V151.628C34.7285 154.796 32.3885 156.128 29.9405 156.128ZM51.0691 139.892C47.9731 139.892 45.9571 141.332 44.8051 142.988L44.4451 140.36H42.1411V165.56H44.8771V155.444C46.1731 157.208 48.1891 158.504 51.0691 158.504C56.7211 158.504 59.4571 153.788 59.4571 149.216C59.4571 144.68 56.3971 139.892 51.0691 139.892ZM50.7811 142.34C54.3091 142.34 56.7211 145.256 56.7211 149.216C56.7211 153.212 54.3091 156.056 50.7811 156.056C47.2171 156.056 44.8411 153.212 44.8411 149.216C44.8411 145.256 47.2171 142.34 50.7811 142.34ZM79.7856 149.936V148.748C79.7856 143.348 76.4376 139.892 71.5056 139.856C66.4656 139.856 62.7576 144.104 62.7576 149.18C62.7576 154.292 66.1416 158.504 71.5416 158.504C75.7896 158.504 78.3816 156.092 79.2816 153.5L76.8696 152.744C76.2936 154.544 74.3496 156.164 71.5416 156.164C68.0136 156.164 65.6016 153.428 65.4576 149.936H79.7856ZM77.2296 147.668H65.4936C65.9256 144.68 68.0496 142.196 71.5416 142.196C74.7456 142.196 77.0136 144.608 77.2296 147.668ZM83.977 158H86.713V148.1C86.713 144.68 88.729 142.448 91.177 142.448C92.365 142.448 93.265 142.844 93.625 143.132L94.741 140.792C94.237 140.36 93.049 139.856 91.501 139.856C89.197 139.856 87.505 141.224 86.677 142.7L86.281 140.36H83.977V158ZM118.914 140.36L114.774 154.508L110.49 140.36H107.574L103.326 154.58L99.1856 140.36H96.4136L101.85 158H104.73L109.086 143.816L113.442 158H116.25L121.686 140.36H118.914ZM132.508 158.504C138.268 158.504 141.58 153.788 141.58 149.18C141.58 144.536 138.268 139.856 132.508 139.856C126.856 139.856 123.508 144.536 123.508 149.18C123.508 153.788 126.712 158.504 132.508 158.504ZM132.508 156.02C128.8 156.02 126.244 153.032 126.244 149.18C126.244 145.292 128.8 142.34 132.508 142.34C136.252 142.34 138.844 145.292 138.844 149.18C138.844 153.032 136.252 156.02 132.508 156.02ZM145.747 158H148.483V148.1C148.483 144.68 150.499 142.448 152.947 142.448C154.135 142.448 155.035 142.844 155.395 143.132L156.511 140.792C156.007 140.36 154.819 139.856 153.271 139.856C150.967 139.856 149.275 141.224 148.447 142.7L148.051 140.36H145.747V158ZM170.656 158H173.824L166.228 147.308L172.96 140.324H169.576L162.088 148.028V132.8H159.352V158H162.088V151.592L164.392 149.216L170.656 158ZM176.411 161.24L177.671 162.356C179.543 160.7 180.443 158.036 180.443 156.452C180.443 154.832 179.435 154.04 178.319 154.04C177.275 154.04 176.231 154.832 176.231 156.2C176.231 157.172 176.951 157.856 177.815 158.144C177.815 159.188 177.059 160.448 176.411 161.24ZM8.352 202.504C10.368 202.504 11.592 201.712 12.024 201.172L10.62 199.264C10.296 199.552 9.648 199.948 8.784 199.948C7.488 199.948 6.732 199.336 6.732 197.68V186.844H11.808V184.36H6.732V179.752H3.996V184.36H0.72V186.844H3.996V197.932C3.996 200.812 5.724 202.504 8.352 202.504ZM20.5754 202.504C23.3834 202.504 25.0754 201.532 26.0474 200.164L26.3714 202H28.6754V190.192C28.6754 186.052 25.9394 183.856 21.6194 183.856C17.8034 183.856 15.4274 185.8 14.7434 189.148L17.2274 189.796C17.5154 187.708 18.6674 186.16 21.6194 186.16C24.5354 186.16 25.9394 187.6 25.9394 190.228V190.804L21.2234 191.488C16.3994 192.172 14.4554 194.08 14.4554 197.176C14.4554 199.984 16.5074 202.504 20.5754 202.504ZM21.1514 200.128C18.6674 200.128 17.1194 198.94 17.1194 197.032C17.1194 194.872 18.8834 194.08 21.5474 193.684L25.9394 193.036V195.628C25.9394 198.796 23.5994 200.128 21.1514 200.128ZM47.536 202L41.128 193.072L47.356 184.36H44.26L39.508 191.056L34.756 184.36H31.66L37.924 193.072L31.48 202H34.54L39.472 195.052L44.44 202H47.536ZM65.8637 193.936V192.748C65.8637 187.348 62.5157 183.892 57.5837 183.856C52.5437 183.856 48.8357 188.104 48.8357 193.18C48.8357 198.292 52.2197 202.504 57.6197 202.504C61.8677 202.504 64.4597 200.092 65.3597 197.5L62.9477 196.744C62.3717 198.544 60.4277 200.164 57.6197 200.164C54.0917 200.164 51.6797 197.428 51.5357 193.936H65.8637ZM63.3077 191.668H51.5717C52.0037 188.68 54.1277 186.196 57.6197 186.196C60.8237 186.196 63.0917 188.608 63.3077 191.668ZM76.1459 202.504C79.8539 202.504 82.9499 200.452 82.9499 197.212C82.9499 193.756 80.2859 192.46 76.6499 191.812C74.1659 191.344 72.2579 190.768 72.2579 189.004C72.2579 187.78 73.0859 186.268 76.1459 186.268C78.7019 186.268 79.8899 187.888 80.2499 189.724L82.7699 189.076C82.0139 185.836 79.8179 183.856 76.1459 183.856C72.6539 183.856 69.6299 185.656 69.6299 189.04C69.6299 192.568 72.6539 193.72 76.1819 194.332C80.0699 194.98 80.2859 196.24 80.2859 197.248C80.2859 199.12 78.5219 200.092 76.1459 200.092C72.7979 200.092 71.8979 197.968 71.3939 196.312L68.9099 197.104C69.9539 200.74 72.4379 202.504 76.1459 202.504ZM85.6375 205.24L86.8975 206.356C88.7695 204.7 89.6695 202.036 89.6695 200.452C89.6695 198.832 88.6615 198.04 87.5455 198.04C86.5015 198.04 85.4575 198.832 85.4575 200.2C85.4575 201.172 86.1775 201.856 87.0415 202.144C87.0415 203.188 86.2855 204.448 85.6375 205.24ZM8.892 246.504C12.6 246.504 15.696 244.452 15.696 241.212C15.696 237.756 13.032 236.46 9.396 235.812C6.912 235.344 5.004 234.768 5.004 233.004C5.004 231.78 5.832 230.268 8.892 230.268C11.448 230.268 12.636 231.888 12.996 233.724L15.516 233.076C14.76 229.836 12.564 227.856 8.892 227.856C5.4 227.856 2.376 229.656 2.376 233.04C2.376 236.568 5.4 237.72 8.928 238.332C12.816 238.98 13.032 240.24 13.032 241.248C13.032 243.12 11.268 244.092 8.892 244.092C5.544 244.092 4.644 241.968 4.14 240.312L1.656 241.104C2.7 244.74 5.184 246.504 8.892 246.504ZM28.0232 246.504C33.7832 246.504 37.0952 241.788 37.0952 237.18C37.0952 232.536 33.7832 227.856 28.0232 227.856C22.3712 227.856 19.0232 232.536 19.0232 237.18C19.0232 241.788 22.2272 246.504 28.0232 246.504ZM28.0232 244.02C24.3152 244.02 21.7592 241.032 21.7592 237.18C21.7592 233.292 24.3152 230.34 28.0232 230.34C31.7672 230.34 34.3592 233.292 34.3592 237.18C34.3592 241.032 31.7672 244.02 28.0232 244.02ZM49.2902 246.504C53.2502 246.504 55.8782 244.056 56.9942 240.996L54.5102 240.132C53.7182 242.508 51.8102 244.02 49.2902 244.02C45.6542 244.02 43.1342 241.14 43.1342 237.18C43.1342 233.22 45.6542 230.34 49.2902 230.34C51.8462 230.34 53.6822 231.78 54.4742 234.084L56.9582 233.22C55.9502 230.232 53.3942 227.856 49.2902 227.856C43.6742 227.856 40.3982 232.428 40.3982 237.18C40.3982 241.896 43.5302 246.504 49.2902 246.504ZM62.8509 225.516C63.9669 225.516 64.8669 224.616 64.8669 223.464C64.8669 222.312 63.9669 221.412 62.8509 221.412C61.6629 221.412 60.7629 222.312 60.7629 223.464C60.7629 224.616 61.6629 225.516 62.8509 225.516ZM61.4829 246H64.2189V228.36H61.4829V246ZM74.8215 246.504C77.6295 246.504 79.3215 245.532 80.2935 244.164L80.6175 246H82.9215V234.192C82.9215 230.052 80.1855 227.856 75.8655 227.856C72.0495 227.856 69.6735 229.8 68.9895 233.148L71.4735 233.796C71.7615 231.708 72.9135 230.16 75.8655 230.16C78.7815 230.16 80.1855 231.6 80.1855 234.228V234.804L75.4695 235.488C70.6455 236.172 68.7015 238.08 68.7015 241.176C68.7015 243.984 70.7535 246.504 74.8215 246.504ZM75.3975 244.128C72.9135 244.128 71.3655 242.94 71.3655 241.032C71.3655 238.872 73.1295 238.08 75.7935 237.684L80.1855 237.036V239.628C80.1855 242.796 77.8455 244.128 75.3975 244.128ZM87.5981 246H90.3341V220.8H87.5981V246ZM114.386 246.468C119.714 246.468 122.773 241.68 122.773 237.144C122.773 232.572 120.038 227.856 114.386 227.856C111.506 227.856 109.49 229.188 108.194 230.916V220.8H105.458V246H107.762L108.122 243.408C109.274 245.028 111.29 246.468 114.386 246.468ZM114.098 244.02C110.534 244.02 108.158 241.104 108.158 237.144C108.158 233.184 110.534 230.304 114.098 230.304C117.626 230.304 120.038 233.148 120.038 237.144C120.038 241.104 117.626 244.02 114.098 244.02ZM143.102 237.936V236.748C143.102 231.348 139.754 227.892 134.822 227.856C129.782 227.856 126.074 232.104 126.074 237.18C126.074 242.292 129.458 246.504 134.858 246.504C139.106 246.504 141.698 244.092 142.598 241.5L140.186 240.744C139.61 242.544 137.666 244.164 134.858 244.164C131.33 244.164 128.918 241.428 128.774 237.936H143.102ZM140.546 235.668H128.81C129.242 232.68 131.366 230.196 134.858 230.196C138.062 230.196 140.33 232.608 140.546 235.668ZM147.293 246H150.029V235.956C150.029 232.464 152.477 230.412 155.069 230.412C157.373 230.412 159.245 231.348 159.245 235.092V246H161.981V234.444C161.981 229.836 159.389 227.856 155.897 227.856C153.377 227.856 151.397 228.828 149.993 230.736L149.597 228.36H147.293V246ZM183.18 237.936V236.748C183.18 231.348 179.832 227.892 174.9 227.856C169.86 227.856 166.152 232.104 166.152 237.18C166.152 242.292 169.536 246.504 174.936 246.504C179.184 246.504 181.776 244.092 182.676 241.5L180.264 240.744C179.688 242.544 177.744 244.164 174.936 244.164C171.408 244.164 168.996 241.428 168.852 237.936H183.18ZM180.624 235.668H168.888C169.32 232.68 171.444 230.196 174.936 230.196C178.14 230.196 180.408 232.608 180.624 235.668ZM188.705 246H191.441V230.844H196.589V228.36H191.441V225.12C191.441 223.572 192.161 222.78 193.529 222.78C194.609 222.78 195.257 223.356 195.365 223.5L196.913 221.628C196.733 221.412 195.653 220.296 193.097 220.296C190.505 220.296 188.705 222.132 188.705 224.904V228.36H185.501V230.844H188.705V246ZM201.367 225.516C202.483 225.516 203.383 224.616 203.383 223.464C203.383 222.312 202.483 221.412 201.367 221.412C200.179 221.412 199.279 222.312 199.279 223.464C199.279 224.616 200.179 225.516 201.367 225.516ZM199.999 246H202.735V228.36H199.999V246ZM213.805 246.504C215.821 246.504 217.045 245.712 217.477 245.172L216.073 243.264C215.749 243.552 215.101 243.948 214.237 243.948C212.941 243.948 212.185 243.336 212.185 241.68V230.844H217.261V228.36H212.185V223.752H209.449V228.36H206.173V230.844H209.449V241.932C209.449 244.812 211.177 246.504 213.805 246.504ZM227.037 246.504C230.745 246.504 233.841 244.452 233.841 241.212C233.841 237.756 231.177 236.46 227.541 235.812C225.057 235.344 223.149 234.768 223.149 233.004C223.149 231.78 223.977 230.268 227.037 230.268C229.593 230.268 230.781 231.888 231.141 233.724L233.661 233.076C232.905 229.836 230.709 227.856 227.037 227.856C223.545 227.856 220.521 229.656 220.521 233.04C220.521 236.568 223.545 237.72 227.073 238.332C230.961 238.98 231.177 240.24 231.177 241.248C231.177 243.12 229.413 244.092 227.037 244.092C223.689 244.092 222.789 241.968 222.285 240.312L219.801 241.104C220.845 244.74 223.329 246.504 227.037 246.504ZM238.436 246.252C239.624 246.252 240.56 245.316 240.56 244.164C240.56 242.976 239.624 242.04 238.436 242.04C237.248 242.04 236.348 242.976 236.348 244.164C236.348 245.316 237.248 246.252 238.436 246.252Z" fill="#A4A39B"/>
</g>
<defs>
<filter id="filter0_d_232_35" x="0.64801" y="0.800049" width="243.373" height="246.704" filterUnits="userSpaceOnUse" color-interpolation-filters="sRGB">
<feFlood flood-opacity="0" result="BackgroundImageFix"/>
<feColorMatrix in="SourceAlpha" type="matrix" values="0 0 0 0 0 0 0 0 0 0 0 0 0 0 0 0 0 0 127 0" result="hardAlpha"/>
<feOffset dx="1" dy="1"/>
<feComposite in2="hardAlpha" operator="out"/>
<feColorMatrix type="matrix" values="0 0 0 0 0.415686 0 0 0 0 0.415686 0 0 0 0 0.392157 0 0 0 1 0"/>
<feBlend mode="normal" in2="BackgroundImageFix" result="effect1_dropShadow_232_35"/>
<feBlend mode="normal" in="SourceGraphic" in2="effect1_dropShadow_232_35" result="shape"/>
</filter>
</defs>
</svg>
