<svg width="153" height="159" viewBox="0 0 153 159" fill="none" xmlns="http://www.w3.org/2000/svg">
<path d="M149 118.751V71.1045C149 62.6252 139.811 57.3343 132.478 61.5913L91.4776 85.3917C88.0868 87.36 86 90.9844 86 94.905V144.218C86 152.844 95.4766 158.114 102.804 153.562L143.804 128.095C147.035 126.088 149 122.554 149 118.751Z" fill="#A3A39A" stroke="black" stroke-width="0.5"/>
<path d="M63.0473 3.38296L21.6468 27.2856C14.2976 31.5286 14.3174 42.1431 21.6825 46.3586L37.6218 55.4818L64.6804 70.9694C68.0784 72.9143 72.2541 72.9064 75.6447 70.9488L117.481 46.7944C124.868 42.5299 124.801 31.8458 117.362 27.6739L73.9279 3.31504C70.543 1.4167 66.4082 1.44251 63.0473 3.38296Z" stroke="black" stroke-width="0.5"/>
<path d="M8.96942 121.86L50.3816 145.769C57.7281 150.011 66.908 144.692 66.8816 136.209L66.8244 117.788L66.9214 86.2526C66.9335 82.3032 64.8274 78.6503 61.4034 76.6821L19.3272 52.4954C11.9412 48.2497 2.74038 53.6499 2.84608 62.1686L3.47027 112.47C3.51842 116.351 5.60821 119.919 8.96942 121.86Z" stroke="black" stroke-width="0.5"/>
</svg>
