<svg width="236" height="240" viewBox="0 0 236 240" fill="none" xmlns="http://www.w3.org/2000/svg">
<path d="M235 182.509V112.068C235 103.597 225.826 98.3052 218.493 102.546L157.493 137.823C154.094 139.789 152 143.418 152 147.346V220.257C152 228.875 161.46 234.146 168.788 229.611L229.788 191.863C233.028 189.858 235 186.32 235 182.509Z" fill="#6F2CFF" stroke="black"/>
<path d="M123.717 28.3798L62.5716 63.6824C55.2224 67.9255 55.2422 78.54 62.6073 82.7555L88.6841 97.6811L125.88 118.971C129.278 120.916 133.454 120.908 136.845 118.95L198.632 83.2773C206.019 79.0128 205.952 68.3287 198.513 64.1568L134.598 28.3119C131.213 26.4136 127.078 26.4394 123.717 28.3798Z" stroke="black"/>
<path d="M49.419 183.76L110.577 219.069C117.923 223.311 127.103 217.992 127.077 209.509L126.983 179.395L127.116 136.047C127.128 132.097 125.022 128.445 121.598 126.476L59.4836 90.7709C52.0976 86.5252 42.8968 91.9254 43.0025 100.444L43.9198 174.37C43.968 178.251 46.0577 181.819 49.419 183.76Z" stroke="black"/>
</svg>
